<?xml version="1.0" encoding="UTF-8" standalone="no"?>
<svg
   xmlns:dc="http://purl.org/dc/elements/1.1/"
   xmlns:cc="http://creativecommons.org/ns#"
   xmlns:rdf="http://www.w3.org/1999/02/22-rdf-syntax-ns#"
   xmlns:svg="http://www.w3.org/2000/svg"
   xmlns="http://www.w3.org/2000/svg"
   xmlns:sodipodi="http://sodipodi.sourceforge.net/DTD/sodipodi-0.dtd"
   xmlns:inkscape="http://www.inkscape.org/namespaces/inkscape"
   version="1.1"
   x="0px"
   y="0px"
   viewBox="0 0 54.013 79.00024"
   enable-background="new 0 0 100 100"
   xml:space="preserve"
   id="svg2"
   inkscape:version="0.48.4 r9939"
   width="100%"
   height="100%"
   sodipodi:docname="noun_19415_cc.svg"><metadata
     id="metadata14"><rdf:RDF><cc:Work
         rdf:about=""><dc:format>image/svg+xml</dc:format><dc:type
           rdf:resource="http://purl.org/dc/dcmitype/StillImage" /><dc:title></dc:title></cc:Work></rdf:RDF></metadata><defs
     id="defs12" /><sodipodi:namedview
     pagecolor="#ffffff"
     bordercolor="#666666"
     borderopacity="1"
     objecttolerance="10"
     gridtolerance="10"
     guidetolerance="10"
     inkscape:pageopacity="0"
     inkscape:pageshadow="2"
     inkscape:window-width="1920"
     inkscape:window-height="1017"
     id="namedview10"
     showgrid="false"
     fit-margin-top="0"
     fit-margin-left="0"
     fit-margin-right="0"
     fit-margin-bottom="0"
     inkscape:zoom="3.776"
     inkscape:cx="54.162124"
     inkscape:cy="46.101795"
     inkscape:window-x="-8"
     inkscape:window-y="-8"
     inkscape:window-maximized="1"
     inkscape:current-layer="svg2" /><path
     d="m 51.138,56.00024 c -0.863,-3.708 0.5,-35 0.5,-35 l -10.861,-1.201 C 41.715,9.1112404 40.207,2.2642404 36.594,1.5472404 c -2.714,-0.536 -5.734,2.543 -8.648,8.4929996 -1.723,-5.5029996 -4.372,-8.5319996 -6.83,-9.57099955 -2.073,-0.875 -4.161,-0.519 -5.87,1.00699995 C 12.076,4.2972404 9.96,11.59424 13.15,23.69324 L 0,25.59624 c 0,0 4.353,31.873 3.746,36.889 -0.607,5.016 -1.733,10.89 -1.733,10.89 0,0 2.875,0.625 5.75,1.25 2.875,0.625 7.25,4.375 7.25,4.375 l 39,-13.375 c 0,0 -2.012,-5.917 -2.875,-9.625 z m -22.8,-34.579 0.716,-0.03 -4.156,0.602 c 0.88,-2.863 1.771,-5.385 2.655,-7.574 0.39,2.061 0.67,4.38 0.785,7.002 z M 16.192,2.5392404 c 1.296,-1.155 2.806,-1.417 4.37,-0.758 2.271,0.961 4.899,4.182 6.464,10.2379996 -1.269,2.877 -2.509,6.299 -3.684,10.197 l -8.772,1.27 C 11.485,11.89924 13.455,4.9752404 16.192,2.5392404 z M 14.888,33.37524 c -3.125,0.875 -2.5,24.375 -2.5,24.375 -4.75,-12.75 0.25,-22.25 -1.125,-25.125 -1.375,-2.875 -5.625,-5.125 -5.625,-5.125 4.125,0 7.75,3.375 7.75,3.375 l 24.5,-4.375 c -1.125,3 -19.875,6 -23,6.875 z m 24.454,-13.474 -9.584,1.386 c -0.162,-3.537 -0.604,-6.565 -1.233,-9.151 3.013,-6.6939996 5.866,-9.5659996 7.791,-9.1899996 2.299,0.454 4.028,5.956 3.026,16.9549996 z"
     id="path4"
     inkscape:connector-curvature="0"
     style="fill:#000000" /></svg>